<svg width="1024" height="1024" viewBox="0 0 1024 1024" fill="none" xmlns="http://www.w3.org/2000/svg">
<rect width="1024" height="1024" fill="#37251B"/>
<g filter="url(#filter0_dddii_522_2)">
<rect width="186.647" height="208.416" rx="25" transform="matrix(0.712015 -0.702164 0.735898 0.677093 246 379.239)" fill="#E9E9E9" shape-rendering="crispEdges"/>
<rect x="-0.50677" y="0.00877484" width="187.347" height="209.116" rx="25.35" transform="matrix(0.712015 -0.702164 0.735898 0.677093 245.848 378.886)" stroke="black" stroke-opacity="0.42" stroke-width="0.7" shape-rendering="crispEdges"/>
</g>
<path d="M273.486 381.102C273.264 379.335 273.129 377.647 273.26 375.917C273.417 373.827 274.314 372.008 276.019 370.435C277.145 369.395 278.26 369.175 279.449 369.746C280.699 370.346 281.765 371.182 282.772 372.076C285.89 374.845 288.9 377.72 292.121 380.385C292.971 381.088 293.587 381.128 294.386 380.156C294.596 379.9 294.864 379.678 295.127 379.466C296.366 378.469 297.387 378.37 298.218 379.151C299.005 379.891 298.876 380.772 297.934 382.005C297.453 382.635 296.173 383.153 296.715 383.97C297.362 384.947 298.219 385.9 299.621 386.078C299.974 386.123 300.359 386.046 300.72 386.068C302.155 386.152 302.663 387.135 301.621 388.214C299.178 390.742 296.994 393.497 294.318 395.819C293.747 396.314 293.022 396.778 292.287 396.302C291.626 395.874 291.479 395.147 291.851 394.452C292.457 393.321 291.97 392.755 291.238 392.131C289.103 390.311 289.597 390.307 287.318 392.518C285.655 394.131 284.107 395.856 282.207 397.235C280.439 398.517 279.497 398.457 278.471 396.88C277.115 394.798 276.136 392.51 275.456 390.087C274.639 387.178 273.907 384.238 273.486 381.102ZM277.845 380.79C278.496 384.96 279.6 388.935 281.74 392.587C283.386 391.542 284.31 390.037 285.635 388.945C286.582 388.165 286.566 387.602 285.838 386.873C283.608 384.641 280.969 382.84 278.641 380.714C278.455 380.545 278.435 380.564 277.845 380.79Z" fill="#41060C"/>
<path d="M507.51 389.944C507.733 391.711 507.867 393.399 507.736 395.129C507.579 397.219 506.682 399.038 504.977 400.611C503.851 401.651 502.736 401.871 501.547 401.3C500.298 400.7 499.231 399.864 498.224 398.969C495.107 396.201 492.097 393.326 488.875 390.661C488.025 389.957 487.41 389.917 486.61 390.889C486.4 391.146 486.132 391.368 485.869 391.58C484.63 392.577 483.609 392.676 482.778 391.895C481.992 391.154 482.12 390.274 483.062 389.041C483.543 388.411 484.823 387.893 484.281 387.076C483.634 386.099 482.777 385.146 481.375 384.968C481.022 384.923 480.638 385 480.276 384.978C478.841 384.894 478.333 383.911 479.375 382.832C481.818 380.304 484.002 377.549 486.678 375.227C487.249 374.732 487.974 374.268 488.709 374.744C489.37 375.172 489.517 375.899 489.145 376.594C488.539 377.725 489.026 378.291 489.758 378.915C491.893 380.735 491.399 380.738 493.678 378.528C495.341 376.915 496.889 375.189 498.789 373.811C500.557 372.529 501.499 372.589 502.526 374.166C503.881 376.248 504.86 378.536 505.54 380.959C506.357 383.868 507.089 386.808 507.51 389.944ZM503.151 390.256C502.5 386.086 501.396 382.111 499.256 378.459C497.61 379.504 496.686 381.009 495.361 382.101C494.414 382.881 494.43 383.444 495.158 384.172C497.388 386.405 500.027 388.206 502.356 390.332C502.541 390.501 502.561 390.482 503.151 390.256Z" fill="#41060C"/>
<path d="M466.246 355.164L479.662 354.194L471.294 364.028L476.715 375.868L464.105 371.118L454.078 379.425L454.63 366.619L442.973 359.892L455.951 356.763L458.784 344.3L466.246 355.164Z" fill="#41060C"/>
<path d="M383.719 362.788L408.787 342.02L407.406 374.035L436.55 390.852L404.106 398.675L397.022 429.833L378.368 402.671L344.826 405.096L365.746 380.512L352.193 350.911L383.719 362.788Z" fill="#41060C"/>
<path d="M315.209 399.645L325.236 391.338L324.684 404.144L336.341 410.871L323.364 414L320.53 426.463L313.069 415.599L299.652 416.568L308.02 406.735L302.599 394.895L315.209 399.645Z" fill="#41060C"/>
<path d="M412.332 406.559L456.27 394.734L417.847 373.248L421.107 330.083L386.514 359.045L344.674 344.308L361.587 383.627L332.399 417.563L377.574 412.964L401.448 448.797L412.332 406.559Z" fill="#41060C"/>
<path d="M435.594 412.053C432.479 415.125 429.185 417.377 425.712 418.809C422.239 420.215 418.902 420.756 415.701 420.433C412.5 420.109 409.742 418.883 407.429 416.754C405.645 415.113 404.398 413.221 403.689 411.077C402.979 408.908 402.811 406.696 403.183 404.442C403.542 402.176 404.424 400.083 405.831 398.164L405.538 397.895C402.867 399.653 399.965 400.402 396.834 400.143C393.688 399.871 390.945 398.657 388.603 396.503C386.387 394.464 385.042 392.031 384.568 389.204C384.08 386.364 384.433 383.412 385.628 380.347C386.823 377.256 388.816 374.334 391.607 371.582C394.399 368.829 397.389 366.837 400.577 365.606C403.778 364.361 406.877 363.922 409.874 364.289C412.856 364.642 415.455 365.825 417.67 367.838C420.012 370.018 421.367 372.601 421.734 375.587C422.101 378.573 421.429 381.347 419.718 383.912L420.011 384.181C421.948 382.802 424.093 381.909 426.445 381.502C428.796 381.07 431.123 381.153 433.424 381.754C435.724 382.328 437.773 383.429 439.57 385.057C441.871 387.199 443.246 389.789 443.696 392.825C444.146 395.861 443.688 399.064 442.319 402.432C440.951 405.774 438.709 408.981 435.594 412.053ZM428.946 405.936C430.335 404.567 431.291 403.133 431.813 401.634C432.322 400.123 432.406 398.658 432.066 397.24C431.726 395.795 430.949 394.515 429.737 393.4C428.496 392.258 427.099 391.551 425.544 391.277C423.976 390.991 422.401 391.11 420.819 391.634C419.223 392.145 417.751 393.065 416.402 394.395C415.067 395.712 414.152 397.145 413.658 398.695C413.15 400.233 413.073 401.743 413.428 403.226C413.782 404.683 414.58 405.983 415.82 407.124C417.033 408.24 418.396 408.941 419.91 409.228C421.409 409.503 422.95 409.365 424.531 408.815C426.099 408.252 427.57 407.293 428.946 405.936ZM409.817 388.336C410.976 387.192 411.764 385.95 412.18 384.611C412.596 383.271 412.628 381.951 412.276 380.65C411.924 379.35 411.184 378.18 410.055 377.141C408.94 376.116 407.708 375.471 406.359 375.206C404.997 374.93 403.634 375.012 402.27 375.454C400.892 375.883 399.61 376.682 398.423 377.852C397.25 379.009 396.455 380.258 396.039 381.598C395.61 382.925 395.564 384.232 395.902 385.52C396.239 386.781 396.965 387.925 398.08 388.951C399.209 389.989 400.462 390.654 401.838 390.943C403.215 391.233 404.599 391.157 405.99 390.715C407.381 390.272 408.657 389.479 409.817 388.336Z" fill="#E9E9E9"/>
<g filter="url(#filter1_dddii_522_2)">
<rect x="415.963" y="244" width="191.287" height="203.121" rx="25" fill="#E9E9E9" shape-rendering="crispEdges"/>
<rect x="415.613" y="243.65" width="191.987" height="203.821" rx="25.35" stroke="black" stroke-opacity="0.42" stroke-width="0.7" shape-rendering="crispEdges"/>
</g>
<path d="M513.412 275.33L580.048 365.66H446.777L513.412 275.33Z" fill="#41060C"/>
<path d="M442 293.396L458.718 320.495H425.281L442 293.396Z" fill="#41060C"/>
<path d="M579.57 399.082L562.851 371.983H596.289L579.57 399.082Z" fill="#41060C"/>
<path d="M433.758 264.311C434.92 262.929 436.084 261.662 437.46 260.548C439.123 259.203 441.09 258.552 443.427 258.627C444.972 258.677 445.898 259.289 446.288 260.502C446.697 261.776 446.805 263.089 446.829 264.403C446.903 268.468 446.824 272.533 447.047 276.598C447.105 277.67 447.497 278.121 448.767 277.992C449.102 277.959 449.451 277.987 449.789 278.021C451.378 278.178 452.151 278.809 452.138 279.922C452.126 280.977 451.383 281.502 449.821 281.713C449.023 281.822 447.761 281.303 447.524 282.244C447.241 283.368 447.118 284.619 447.945 285.704C448.154 285.977 448.474 286.188 448.705 286.451C449.625 287.495 449.241 288.527 447.725 288.563C444.172 288.645 440.628 289.064 437.069 288.843C436.309 288.796 435.468 288.621 435.319 287.786C435.185 287.034 435.625 286.427 436.397 286.199C437.653 285.828 437.741 285.101 437.704 284.164C437.597 281.433 437.937 281.769 434.732 281.744C432.395 281.725 430.051 281.863 427.725 281.519C425.561 281.198 424.961 280.509 425.431 278.708C426.053 276.329 427.084 274.067 428.422 271.913C430.026 269.329 431.713 266.782 433.758 264.311ZM436.974 267.085C434.317 270.432 432.115 273.956 430.863 277.965C432.767 278.367 434.52 277.953 436.239 278.103C437.468 278.21 437.875 277.808 437.919 276.801C438.053 273.718 437.587 270.655 437.574 267.578C437.573 267.332 437.546 267.332 436.974 267.085Z" fill="#41060C"/>
<path d="M589.455 430.466C588.293 431.848 587.129 433.115 585.753 434.229C584.09 435.575 582.123 436.226 579.785 436.15C578.241 436.101 577.314 435.489 576.925 434.276C576.516 433.001 576.408 431.688 576.384 430.374C576.31 426.31 576.388 422.244 576.166 418.179C576.108 417.107 575.716 416.657 574.446 416.785C574.111 416.819 573.762 416.79 573.424 416.757C571.835 416.6 571.062 415.969 571.075 414.855C571.087 413.8 571.83 413.276 573.392 413.064C574.19 412.956 575.452 413.474 575.689 412.534C575.972 411.409 576.094 410.159 575.267 409.073C575.059 408.8 574.739 408.589 574.507 408.326C573.588 407.283 573.972 406.25 575.488 406.215C579.041 406.132 582.585 405.714 586.144 405.935C586.903 405.982 587.745 406.156 587.894 406.991C588.028 407.744 587.588 408.35 586.816 408.578C585.56 408.949 585.472 409.677 585.509 410.614C585.616 413.344 585.276 413.008 588.48 413.034C590.818 413.052 593.162 412.914 595.487 413.259C597.652 413.579 598.252 414.268 597.782 416.069C597.16 418.448 596.128 420.711 594.791 422.864C593.186 425.448 591.5 427.996 589.455 430.466ZM586.239 427.693C588.896 424.345 591.097 420.821 592.35 416.813C590.446 416.41 588.693 416.824 586.974 416.674C585.745 416.567 585.338 416.969 585.294 417.976C585.159 421.059 585.626 424.123 585.638 427.199C585.639 427.445 585.667 427.445 586.239 427.693Z" fill="#41060C"/>
<g filter="url(#filter2_dddii_522_2)">
<rect width="189.874" height="204.762" rx="25" transform="matrix(0.923945 0.382527 -0.415114 0.909769 602.566 269.688)" fill="#E9E9E9" shape-rendering="crispEdges"/>
<rect x="-0.178091" y="-0.452304" width="190.574" height="205.462" rx="25.35" transform="matrix(0.923945 0.382527 -0.415114 0.909769 602.365 269.716)" stroke="black" stroke-opacity="0.42" stroke-width="0.7" shape-rendering="crispEdges"/>
</g>
<path d="M703.504 443.875C711.982 447.384 715.894 456.717 712.243 464.719C708.592 472.721 698.76 476.362 690.282 472.852C681.804 469.342 677.891 460.01 681.542 452.008C685.194 444.006 695.026 440.365 703.504 443.875Z" fill="#41060C"/>
<path d="M668.438 351.594C695.082 362.625 707.38 391.955 695.904 417.104C684.429 442.253 653.527 453.698 626.883 442.667C600.238 431.636 587.941 402.306 599.416 377.156C610.891 352.007 641.793 340.562 668.438 351.594Z" fill="#41060C"/>
<path d="M605.093 325.86C613.571 329.37 617.484 338.702 613.832 346.704C610.181 354.706 600.349 358.348 591.871 354.838C583.393 351.328 579.48 341.996 583.132 333.994C586.783 325.992 596.615 322.35 605.093 325.86Z" fill="#41060C"/>
<path d="M610.368 294.863C612.027 294.046 613.64 293.334 615.387 292.844C617.496 292.252 619.6 292.414 621.744 293.384C623.161 294.025 623.768 294.943 623.623 296.203C623.471 297.528 623.023 298.772 622.497 299.985C620.867 303.736 619.095 307.429 617.603 311.237C617.21 312.242 617.386 312.805 618.622 313.177C618.948 313.275 619.261 313.436 619.561 313.597C620.975 314.353 621.431 315.229 620.953 316.244C620.501 317.205 619.59 317.399 618.048 316.991C617.26 316.783 616.302 315.822 615.688 316.592C614.955 317.512 614.318 318.61 614.635 319.923C614.714 320.254 614.924 320.57 615.03 320.9C615.45 322.21 614.661 323.008 613.235 322.456C609.893 321.162 606.419 320.18 603.199 318.606C602.512 318.27 601.801 317.786 602.012 316.964C602.201 316.223 602.864 315.837 603.678 315.926C605.002 316.071 605.388 315.438 605.745 314.566C606.786 312.023 606.963 312.462 603.991 311.204C601.822 310.286 599.583 309.509 597.562 308.298C595.682 307.17 595.411 306.308 596.601 304.84C598.174 302.9 600.08 301.226 602.224 299.769C604.798 298.021 607.432 296.338 610.368 294.863ZM612.203 298.643C608.33 300.685 604.809 303.064 601.968 306.252C603.572 307.354 605.376 307.651 606.914 308.451C608.013 309.022 608.561 308.811 609.022 307.906C610.436 305.134 611.281 302.149 612.556 299.326C612.657 299.101 612.631 299.09 612.203 298.643Z" fill="#41060C"/>
<path d="M683.685 506.744C682.026 507.562 680.413 508.273 678.666 508.763C676.556 509.355 674.453 509.193 672.309 508.223C670.892 507.582 670.285 506.665 670.43 505.404C670.581 504.079 671.029 502.835 671.556 501.622C673.186 497.871 674.958 494.178 676.449 490.37C676.843 489.366 676.666 488.802 675.431 488.43C675.105 488.332 674.792 488.171 674.492 488.011C673.078 487.254 672.622 486.379 673.099 485.364C673.551 484.402 674.462 484.208 676.005 484.616C676.792 484.825 677.751 485.786 678.364 485.016C679.098 484.095 679.734 482.997 679.418 481.684C679.338 481.354 679.129 481.037 679.023 480.707C678.603 479.397 679.392 478.599 680.817 479.151C684.16 480.445 687.634 481.428 690.854 483.001C691.541 483.337 692.251 483.821 692.041 484.643C691.852 485.384 691.188 485.77 690.374 485.681C689.05 485.537 688.665 486.17 688.308 487.042C687.266 489.584 687.09 489.145 690.062 490.403C692.23 491.321 694.47 492.098 696.49 493.31C698.371 494.437 698.642 495.299 697.451 496.768C695.879 498.707 693.973 500.382 691.829 501.838C689.255 503.586 686.62 505.269 683.685 506.744ZM681.85 502.964C685.722 500.923 689.244 498.544 692.085 495.355C690.48 494.253 688.676 493.957 687.139 493.157C686.039 492.585 685.492 492.797 685.031 493.702C683.617 496.474 682.771 499.459 681.497 502.281C681.395 502.507 681.421 502.517 681.85 502.964Z" fill="#41060C"/>
<path d="M407.579 756.425H385.798V685.68L382.441 679.511H407.647L420.25 704.449L432.305 729.321L428.949 700.117V679.511H450.799V756.425H429.908L413.606 726.04L403.538 707.008L407.579 732.209V756.425Z" fill="#C6BDBD"/>
<path d="M492.443 750.584L491.758 751.306C491.301 751.831 490.593 752.444 489.634 753.144C488.721 753.844 487.648 754.544 486.415 755.244C485.228 755.944 483.767 756.534 482.032 757.016C480.296 757.541 478.515 757.803 476.689 757.803C464.36 757.803 458.195 751.962 458.195 740.281C458.195 738.006 458.629 735.928 459.497 734.046C460.364 732.121 461.483 730.503 462.853 729.19C464.223 727.877 465.867 726.718 467.785 725.712C469.702 724.662 471.62 723.852 473.538 723.284C475.502 722.671 477.557 722.168 479.703 721.774C481.849 721.38 483.767 721.118 485.456 720.987C487.146 720.855 488.767 720.79 490.319 720.79V719.609C490.319 716.94 489.566 715.058 488.059 713.965C486.598 712.871 484.223 712.324 480.936 712.324C478.104 712.324 475.159 712.652 472.1 713.308C469.04 713.921 466.643 714.665 464.908 715.54L460.524 706.614C463.629 704.689 467.67 703.005 472.648 701.561C477.625 700.074 482.694 699.33 487.854 699.33C492.42 699.33 496.187 699.767 499.155 700.642C502.123 701.474 504.521 702.918 506.347 704.974C508.219 706.986 509.544 709.568 510.32 712.718C511.096 715.824 511.484 719.784 511.484 724.596V751.306L513.402 756.425H494.635L492.443 750.584ZM487.032 746.253C487.625 746.253 488.173 746.143 488.675 745.925C489.223 745.662 489.634 745.422 489.908 745.203C490.182 744.94 490.319 744.809 490.319 744.809V729.059C487.534 729.059 485.319 729.802 483.675 731.29C482.031 732.734 481.21 734.987 481.21 738.05C481.21 743.518 483.15 746.253 487.032 746.253Z" fill="#C6BDBD"/>
<path d="M522.299 756.425V713.965L518.189 711.536V704.514L532.916 700.642H544.354V756.425H522.299ZM532.231 694.605L520.997 683.776V681.48L532.231 670.717H534.833L546.546 681.48V683.776L534.833 694.605H532.231Z" fill="#C6BDBD"/>
<path d="M561.27 779C554.922 779 549.785 776.682 545.858 772.044L549.352 764.956C551.361 766.181 553.37 766.794 555.379 766.794C555.836 766.794 556.224 766.706 556.543 766.531C556.909 766.4 557.297 766.05 557.708 765.481C558.119 764.956 558.438 764.213 558.667 763.25C558.941 762.331 559.169 761.019 559.352 759.313C559.534 757.65 559.626 755.659 559.626 753.341V713.768L554.626 711.143V704.121L570.379 700.642H581.133V748.747C581.133 758.372 579.489 765.81 576.201 771.06C572.959 776.354 567.982 779 561.27 779ZM569.9 694.605L558.667 683.776V681.48L569.9 670.717H572.503L584.215 681.48V683.776L572.503 694.605H569.9Z" fill="#C6BDBD"/>
<path d="M621.015 750.584L620.33 751.306C619.873 751.831 619.165 752.444 618.206 753.144C617.293 753.844 616.22 754.544 614.987 755.244C613.8 755.944 612.339 756.534 610.603 757.016C608.868 757.541 607.087 757.803 605.261 757.803C592.932 757.803 586.767 751.962 586.767 740.281C586.767 738.006 587.201 735.928 588.069 734.046C588.936 732.121 590.055 730.503 591.425 729.19C592.795 727.877 594.439 726.718 596.357 725.712C598.274 724.662 600.192 723.852 602.11 723.284C604.074 722.671 606.128 722.168 608.275 721.774C610.421 721.38 612.339 721.118 614.028 720.987C615.718 720.855 617.339 720.79 618.891 720.79V719.609C618.891 716.94 618.138 715.058 616.631 713.965C615.17 712.871 612.795 712.324 609.507 712.324C606.676 712.324 603.731 712.652 600.672 713.308C597.612 713.921 595.215 714.665 593.48 715.54L589.096 706.614C592.201 704.689 596.242 703.005 601.22 701.561C606.197 700.074 611.265 699.33 616.425 699.33C620.992 699.33 624.759 699.767 627.727 700.642C630.695 701.474 633.092 702.918 634.919 704.974C636.791 706.986 638.115 709.568 638.892 712.718C639.668 715.824 640.056 719.784 640.056 724.596V751.306L641.974 756.425H623.206L621.015 750.584ZM615.603 746.253C616.197 746.253 616.745 746.143 617.247 745.925C617.795 745.662 618.206 745.422 618.48 745.203C618.754 744.94 618.891 744.809 618.891 744.809V729.059C616.106 729.059 613.891 729.802 612.247 731.29C610.603 732.734 609.781 734.987 609.781 738.05C609.781 743.518 611.722 746.253 615.603 746.253Z" fill="#C6BDBD"/>
<path d="M337.066 616.552C334.478 613.159 331.984 609.893 329.302 606.38C318.235 619.911 307.346 633.223 296.131 646.934C281.009 617.217 266.037 587.794 250.93 558.105C261.222 554.235 271.354 550.426 281.685 546.542C288.423 557.216 295.158 567.887 302.076 578.847C311.211 567.26 320.153 555.916 329.188 544.455C338.042 555.727 346.718 566.775 355.648 578.146C362.623 567.062 369.444 556.223 376.401 545.169C387.313 549.875 398 554.485 408.985 559.222C392.326 588.088 375.813 616.7 359.115 645.633C351.699 635.853 344.429 626.265 337.066 616.552Z" fill="#FEFEFE"/>
<path d="M554.098 625.875C535.158 604.525 538.4 575.06 561.519 557.365C584.864 539.496 621.407 539.177 644.929 556.79C657.769 566.405 664.979 578.885 665.353 594.215C665.788 611.981 657.044 625.647 641.641 635.769C615.037 653.25 575.564 648.746 554.098 625.875ZM587.45 614.414C595.243 618.602 603.543 619.574 612.205 617.451C629.644 613.176 637.429 595.812 627.65 582.464C620.825 573.147 610.599 570.226 598.938 571.665C590.11 572.755 582.872 576.701 578.492 584.11C572.119 594.887 575.685 606.921 587.45 614.414Z" fill="#FEFEFE"/>
<path d="M445.255 548.84C450.902 548.841 456.32 548.841 461.921 548.841C461.921 558.776 461.921 568.601 461.921 578.57C471.761 578.57 481.418 578.57 491.312 578.57C491.312 568.701 491.312 558.878 491.312 548.937C502.988 548.937 514.427 548.937 526.198 548.937C526.198 580.305 526.198 611.686 526.198 643.2C514.774 643.2 503.187 643.2 491.379 643.2C491.379 628.04 491.379 612.857 491.379 597.251C487.674 599.188 484.12 600.679 481.036 602.761C477.918 604.866 475.42 604.739 472.33 602.785C469.228 600.823 465.751 599.367 462.069 597.503C462.069 612.965 462.069 628.008 462.069 643.194C450.335 643.194 438.835 643.194 427.229 643.194C427.229 611.797 427.229 580.414 427.229 548.84C433.286 548.84 439.156 548.84 445.255 548.84Z" fill="#FDFDFD"/>
<path d="M747.684 568.852C745.903 567.42 744.245 566.085 742.508 564.685C742.508 577.978 742.508 591.104 742.508 604.231C742.508 617.319 742.508 630.408 742.508 643.6C730.301 643.6 717.935 643.6 705.261 643.6C704.998 617.746 704.736 591.878 704.468 565.513C693.523 573.85 682.926 581.923 671.874 590.342C671.874 576.289 671.874 562.736 671.874 549.007C705.29 549.007 738.884 549.007 772.859 549.007C772.859 562.393 772.859 575.785 772.859 589.447C764.453 582.569 756.131 575.759 747.684 568.852Z" fill="#FDFDFD"/>
<defs>
<filter id="filter0_dddii_522_2" x="241.881" y="246.595" width="294.506" height="282.35" filterUnits="userSpaceOnUse" color-interpolation-filters="sRGB">
<feFlood flood-opacity="0" result="BackgroundImageFix"/>
<feColorMatrix in="SourceAlpha" type="matrix" values="0 0 0 0 0 0 0 0 0 0 0 0 0 0 0 0 0 0 127 0" result="hardAlpha"/>
<feMorphology radius="4" operator="erode" in="SourceAlpha" result="effect1_dropShadow_522_2"/>
<feOffset dy="5"/>
<feGaussianBlur stdDeviation="2.5"/>
<feComposite in2="hardAlpha" operator="out"/>
<feColorMatrix type="matrix" values="0 0 0 0 0 0 0 0 0 0 0 0 0 0 0 0 0 0 0.24 0"/>
<feBlend mode="multiply" in2="BackgroundImageFix" result="effect1_dropShadow_522_2"/>
<feColorMatrix in="SourceAlpha" type="matrix" values="0 0 0 0 0 0 0 0 0 0 0 0 0 0 0 0 0 0 127 0" result="hardAlpha"/>
<feOffset dy="3"/>
<feGaussianBlur stdDeviation="7"/>
<feComposite in2="hardAlpha" operator="out"/>
<feColorMatrix type="matrix" values="0 0 0 0 0 0 0 0 0 0 0 0 0 0 0 0 0 0 0.2 0"/>
<feBlend mode="normal" in2="effect1_dropShadow_522_2" result="effect2_dropShadow_522_2"/>
<feColorMatrix in="SourceAlpha" type="matrix" values="0 0 0 0 0 0 0 0 0 0 0 0 0 0 0 0 0 0 127 0" result="hardAlpha"/>
<feOffset dy="8"/>
<feGaussianBlur stdDeviation="5"/>
<feComposite in2="hardAlpha" operator="out"/>
<feColorMatrix type="matrix" values="0 0 0 0 0 0 0 0 0 0 0 0 0 0 0 0 0 0 0.12 0"/>
<feBlend mode="normal" in2="effect2_dropShadow_522_2" result="effect3_dropShadow_522_2"/>
<feBlend mode="normal" in="SourceGraphic" in2="effect3_dropShadow_522_2" result="shape"/>
<feColorMatrix in="SourceAlpha" type="matrix" values="0 0 0 0 0 0 0 0 0 0 0 0 0 0 0 0 0 0 127 0" result="hardAlpha"/>
<feOffset dx="8" dy="8"/>
<feGaussianBlur stdDeviation="1"/>
<feComposite in2="hardAlpha" operator="arithmetic" k2="-1" k3="1"/>
<feColorMatrix type="matrix" values="0 0 0 0 1 0 0 0 0 1 0 0 0 0 1 0 0 0 1 0"/>
<feBlend mode="normal" in2="shape" result="effect4_innerShadow_522_2"/>
<feColorMatrix in="SourceAlpha" type="matrix" values="0 0 0 0 0 0 0 0 0 0 0 0 0 0 0 0 0 0 127 0" result="hardAlpha"/>
<feOffset dx="-7" dy="-6"/>
<feGaussianBlur stdDeviation="0.75"/>
<feComposite in2="hardAlpha" operator="arithmetic" k2="-1" k3="1"/>
<feColorMatrix type="matrix" values="0 0 0 0 0.821852 0 0 0 0 0.814952 0 0 0 0 0.814952 0 0 0 0.95 0"/>
<feBlend mode="normal" in2="effect4_innerShadow_522_2" result="effect5_innerShadow_522_2"/>
</filter>
<filter id="filter1_dddii_522_2" x="401.264" y="232.3" width="220.686" height="233.521" filterUnits="userSpaceOnUse" color-interpolation-filters="sRGB">
<feFlood flood-opacity="0" result="BackgroundImageFix"/>
<feColorMatrix in="SourceAlpha" type="matrix" values="0 0 0 0 0 0 0 0 0 0 0 0 0 0 0 0 0 0 127 0" result="hardAlpha"/>
<feMorphology radius="4" operator="erode" in="SourceAlpha" result="effect1_dropShadow_522_2"/>
<feOffset dy="5"/>
<feGaussianBlur stdDeviation="2.5"/>
<feComposite in2="hardAlpha" operator="out"/>
<feColorMatrix type="matrix" values="0 0 0 0 0 0 0 0 0 0 0 0 0 0 0 0 0 0 0.24 0"/>
<feBlend mode="multiply" in2="BackgroundImageFix" result="effect1_dropShadow_522_2"/>
<feColorMatrix in="SourceAlpha" type="matrix" values="0 0 0 0 0 0 0 0 0 0 0 0 0 0 0 0 0 0 127 0" result="hardAlpha"/>
<feOffset dy="3"/>
<feGaussianBlur stdDeviation="7"/>
<feComposite in2="hardAlpha" operator="out"/>
<feColorMatrix type="matrix" values="0 0 0 0 0 0 0 0 0 0 0 0 0 0 0 0 0 0 0.2 0"/>
<feBlend mode="normal" in2="effect1_dropShadow_522_2" result="effect2_dropShadow_522_2"/>
<feColorMatrix in="SourceAlpha" type="matrix" values="0 0 0 0 0 0 0 0 0 0 0 0 0 0 0 0 0 0 127 0" result="hardAlpha"/>
<feOffset dy="8"/>
<feGaussianBlur stdDeviation="5"/>
<feComposite in2="hardAlpha" operator="out"/>
<feColorMatrix type="matrix" values="0 0 0 0 0 0 0 0 0 0 0 0 0 0 0 0 0 0 0.12 0"/>
<feBlend mode="normal" in2="effect2_dropShadow_522_2" result="effect3_dropShadow_522_2"/>
<feBlend mode="normal" in="SourceGraphic" in2="effect3_dropShadow_522_2" result="shape"/>
<feColorMatrix in="SourceAlpha" type="matrix" values="0 0 0 0 0 0 0 0 0 0 0 0 0 0 0 0 0 0 127 0" result="hardAlpha"/>
<feOffset dx="8" dy="8"/>
<feGaussianBlur stdDeviation="1"/>
<feComposite in2="hardAlpha" operator="arithmetic" k2="-1" k3="1"/>
<feColorMatrix type="matrix" values="0 0 0 0 1 0 0 0 0 1 0 0 0 0 1 0 0 0 1 0"/>
<feBlend mode="normal" in2="shape" result="effect4_innerShadow_522_2"/>
<feColorMatrix in="SourceAlpha" type="matrix" values="0 0 0 0 0 0 0 0 0 0 0 0 0 0 0 0 0 0 127 0" result="hardAlpha"/>
<feOffset dx="-7" dy="-6"/>
<feGaussianBlur stdDeviation="0.75"/>
<feComposite in2="hardAlpha" operator="arithmetic" k2="-1" k3="1"/>
<feColorMatrix type="matrix" values="0 0 0 0 0.821852 0 0 0 0 0.814952 0 0 0 0 0.814952 0 0 0 0.95 0"/>
<feBlend mode="normal" in2="effect4_innerShadow_522_2" result="effect5_innerShadow_522_2"/>
</filter>
<filter id="filter2_dddii_522_2" x="511.006" y="265.626" width="273.555" height="274.044" filterUnits="userSpaceOnUse" color-interpolation-filters="sRGB">
<feFlood flood-opacity="0" result="BackgroundImageFix"/>
<feColorMatrix in="SourceAlpha" type="matrix" values="0 0 0 0 0 0 0 0 0 0 0 0 0 0 0 0 0 0 127 0" result="hardAlpha"/>
<feMorphology radius="4" operator="erode" in="SourceAlpha" result="effect1_dropShadow_522_2"/>
<feOffset dy="5"/>
<feGaussianBlur stdDeviation="2.5"/>
<feComposite in2="hardAlpha" operator="out"/>
<feColorMatrix type="matrix" values="0 0 0 0 0 0 0 0 0 0 0 0 0 0 0 0 0 0 0.24 0"/>
<feBlend mode="multiply" in2="BackgroundImageFix" result="effect1_dropShadow_522_2"/>
<feColorMatrix in="SourceAlpha" type="matrix" values="0 0 0 0 0 0 0 0 0 0 0 0 0 0 0 0 0 0 127 0" result="hardAlpha"/>
<feOffset dy="3"/>
<feGaussianBlur stdDeviation="7"/>
<feComposite in2="hardAlpha" operator="out"/>
<feColorMatrix type="matrix" values="0 0 0 0 0 0 0 0 0 0 0 0 0 0 0 0 0 0 0.2 0"/>
<feBlend mode="normal" in2="effect1_dropShadow_522_2" result="effect2_dropShadow_522_2"/>
<feColorMatrix in="SourceAlpha" type="matrix" values="0 0 0 0 0 0 0 0 0 0 0 0 0 0 0 0 0 0 127 0" result="hardAlpha"/>
<feOffset dy="8"/>
<feGaussianBlur stdDeviation="5"/>
<feComposite in2="hardAlpha" operator="out"/>
<feColorMatrix type="matrix" values="0 0 0 0 0 0 0 0 0 0 0 0 0 0 0 0 0 0 0.12 0"/>
<feBlend mode="normal" in2="effect2_dropShadow_522_2" result="effect3_dropShadow_522_2"/>
<feBlend mode="normal" in="SourceGraphic" in2="effect3_dropShadow_522_2" result="shape"/>
<feColorMatrix in="SourceAlpha" type="matrix" values="0 0 0 0 0 0 0 0 0 0 0 0 0 0 0 0 0 0 127 0" result="hardAlpha"/>
<feOffset dx="8" dy="8"/>
<feGaussianBlur stdDeviation="1"/>
<feComposite in2="hardAlpha" operator="arithmetic" k2="-1" k3="1"/>
<feColorMatrix type="matrix" values="0 0 0 0 1 0 0 0 0 1 0 0 0 0 1 0 0 0 1 0"/>
<feBlend mode="normal" in2="shape" result="effect4_innerShadow_522_2"/>
<feColorMatrix in="SourceAlpha" type="matrix" values="0 0 0 0 0 0 0 0 0 0 0 0 0 0 0 0 0 0 127 0" result="hardAlpha"/>
<feOffset dx="-7" dy="-6"/>
<feGaussianBlur stdDeviation="0.75"/>
<feComposite in2="hardAlpha" operator="arithmetic" k2="-1" k3="1"/>
<feColorMatrix type="matrix" values="0 0 0 0 0.821852 0 0 0 0 0.814952 0 0 0 0 0.814952 0 0 0 0.95 0"/>
<feBlend mode="normal" in2="effect4_innerShadow_522_2" result="effect5_innerShadow_522_2"/>
</filter>
</defs>
</svg>
