<svg width="860" height="693" viewBox="0 0 860 693" fill="none" xmlns="http://www.w3.org/2000/svg">
<g opacity="0.1">
<path fill-rule="evenodd" clip-rule="evenodd" d="M590.108 569.287C616.263 561.704 643.918 574.375 655.786 599.697C670.823 631.777 660.193 676.25 624.821 688.557C604.82 695.516 585.748 693.114 568.747 678.417C553.584 665.309 546.601 647.013 548.085 625.147C549.748 600.652 560.785 583.343 580.02 573.205C583.172 571.544 586.463 570.456 590.108 569.287ZM182.955 514.429C204.676 512.517 226.417 515.083 248.147 514.371C251.234 514.27 252.417 515.808 252.284 519.205C252.228 520.649 252.251 522.097 252.245 523.542C252.212 531.423 252.212 531.424 245.767 533.901C240.467 535.937 238.081 541.272 240 548.215C242.616 557.68 245.57 567.023 248.561 576.339C254.301 594.222 260.149 612.058 266.012 629.886C266.579 631.61 266.837 633.639 268.539 634.938C271.237 630.478 272.096 625.197 273.966 620.029C280.381 599.981 286.818 580.34 292.898 560.549C296.545 548.677 290.07 536.593 279.357 534.2C277.063 533.687 273.508 534.533 272.934 531.359C272.043 526.431 271.473 521.177 272.722 516.106C273.138 514.418 274.663 514.538 275.896 514.552C296.397 514.779 316.899 515.021 337.401 515.281C338.072 515.289 339.041 515.236 339.364 515.697C341.939 519.362 340.309 523.665 340.489 527.694C340.59 529.928 339.485 530.926 337.516 531.449C328.72 533.783 325.476 539.762 328.424 549.943C332.56 564.227 337.403 578.234 341.997 592.335C346.101 604.932 350.264 617.504 354.438 630.07C354.975 631.687 355.728 633.207 356.385 634.78C358.339 634.257 358.414 632.451 358.852 631.066C366.791 605.921 374.717 580.771 382.596 555.6C383.679 552.139 384.612 548.601 385.413 545.037C386.763 539.033 384.722 534.491 379.704 532.566C376.044 531.162 372.26 530.106 368.356 530.524C365.517 530.828 364.829 529.37 364.935 526.293C365.307 515.399 365.238 515.396 374.459 515.387C389.6 515.372 404.743 515.477 419.882 515.259C423.824 515.202 425.53 516.695 425.078 521.339C424.924 522.925 425.016 524.551 425.06 526.156C425.137 528.991 423.927 530.326 421.566 530.292C411.913 530.156 407.186 536.572 404.14 546.604C392.52 584.874 380.541 622.996 368.677 661.164C365.91 670.065 362.874 678.861 360.359 687.856C359.405 691.264 357.721 692.065 355.187 691.877C352.025 691.643 348.872 691.389 345.713 691.887C342.084 692.459 339.958 690.892 338.585 686.634C330.155 660.496 321.503 634.455 312.932 608.379C310.815 601.94 308.744 595.48 306.604 589.051C306.178 587.774 305.534 586.595 304.574 584.433C301.683 593.112 299.01 600.804 296.549 608.587C288.312 634.635 280.092 660.691 272.02 686.808C270.76 690.882 268.721 692.262 265.228 691.847C262.634 691.539 259.943 691.137 257.409 691.61C252.64 692.499 250.688 689.952 249.125 685.031C236.175 644.247 223.017 603.552 209.938 562.824C208.105 557.116 206.452 551.329 204.544 545.657C201.39 536.281 194.565 533.188 186.783 532.535C173.74 531.439 161.499 534.575 151.13 544.327C142.594 552.355 139.881 563.235 142.364 575.47C144.686 586.908 151.518 593.31 161.216 595.859C163.921 596.57 166.473 596.017 168.896 594.932C173.471 592.883 172.517 588.575 171.763 584.373C170.531 577.508 172.302 572.664 177.129 569.184C182.331 565.434 187.565 565.477 192.715 569.158C198.81 573.514 200.711 580.315 200.224 588.194C199.729 596.188 196.382 602.447 191.043 607.357C176.515 620.718 150.621 620.585 136.181 607.061C114.707 586.949 116.883 548.524 140.556 530.017C153.38 519.991 167.822 515.761 182.955 514.429ZM691.996 545.972C693.829 538.743 697.528 536.43 703.642 538.581C706.053 539.43 705.679 541.798 705.671 543.729C705.633 552.718 705.381 561.706 705.323 570.695C705.276 577.975 705.35 577.982 711.662 577.999C716.479 578.012 721.297 578.075 726.112 577.979C728.33 577.935 729.358 578.754 729.315 581.566C729.126 593.834 732.192 593.687 719.647 593.625C715.934 593.607 712.218 593.552 708.513 593.309C706.459 593.174 705.3 593.871 705.332 596.415C705.589 616.796 704.292 637.219 706.011 657.553C707.121 670.678 716.644 675.866 726.443 669.155C727.857 668.186 729.229 667.13 730.453 666.237C731.865 666.523 732.081 667.765 732.571 668.661C737.604 677.861 737.349 679.109 729.164 684.899C726.217 686.984 723.13 688.746 719.478 689.972C706.151 694.082 694.29 692.136 684.526 680.469C678.466 673.228 676.843 663.858 676.686 654.273C676.396 636.61 676.595 618.935 676.555 601.266C676.537 593.703 676.496 593.703 669.95 593.608C664.708 593.532 664.458 593.229 664.467 586.96C664.469 585.194 664.503 583.426 664.483 581.66C664.457 579.414 665.256 578.237 667.254 577.703C680.611 574.139 687.175 562.791 691.323 548.751C691.592 547.843 691.762 546.895 691.996 545.972ZM464.15 514.416C470.585 513.522 471.335 514.261 471.326 521.787C471.305 540.262 471.263 558.736 471.267 577.21C471.267 579.424 470.93 581.708 472.116 584.563C477.002 581.841 481.905 579.098 487.193 577.52C494.913 575.216 502.567 574.314 510.389 576.891C524.22 581.448 531.59 592.335 531.745 609.155C531.886 624.414 531.84 639.677 531.81 654.938C531.803 658.172 532.146 661.327 532.586 664.503C533.284 669.538 535.87 672.385 540.063 672.534C543.752 672.664 544.943 674.61 544.67 678.503C544.659 678.663 544.668 678.824 544.67 678.985C544.785 687.528 544.785 687.532 537.644 687.534C524.018 687.536 510.39 687.394 496.768 687.62C492.871 687.685 491.083 686.371 491.571 681.654C491.752 679.911 491.665 678.12 491.597 676.357C491.513 674.185 492.453 673.306 494.167 672.746C499.846 670.891 502.11 668.148 502.202 661.309C502.43 644.446 502.82 627.543 502.081 610.72C501.472 596.863 496.221 593.479 482.896 595.327C481.286 595.55 479.698 596.295 478.176 597.017C471.761 600.061 471.328 600.987 471.217 609.172C471.03 622.982 471.449 636.797 470.767 650.604C470.505 655.898 470.983 661.177 472.247 666.327C473.14 669.965 475.094 672.304 478.33 672.51C481.352 672.703 482.306 674.243 482.256 677.665C482.085 689.232 483.082 687.458 473.977 687.507C459.388 687.586 444.798 687.416 430.211 687.596C426.65 687.64 425.012 686.396 425.481 682.114C425.602 681.007 425.615 679.847 425.476 678.746C424.885 674.087 426.701 672.676 430.544 672.526C437.461 672.256 440.444 668.465 441.392 660.283C442.527 650.482 441.827 640.704 441.155 630.957C440.744 624.991 437.654 620.671 433.315 617.535C432.08 616.643 430.365 616.479 429.633 614.391C431.168 611.759 433.964 610.718 435.64 608.086C439.657 601.776 441.604 594.755 441.751 587.007C441.956 576.259 442.509 565.495 441.375 554.772C440.607 547.507 438.136 545.009 431.944 544.788C429.91 544.716 427.443 545.717 427.131 541.537C426.571 534.023 426.996 532.337 430.908 531.394C436.606 530.02 441.994 527.68 447.481 524.564C451.812 521.686 455.869 518.968 459.941 516.283C461.256 515.415 462.592 514.633 464.15 514.416ZM621.999 598.166C614.065 585.641 598.746 584.632 589.5 595.827C585.771 600.342 583.409 605.687 581.748 612.39C577.922 628.676 579.309 644.338 586.871 658.745C595.599 675.371 614.754 675.429 624.002 659.32C627.974 652.401 629.461 644.598 630.026 636.578C630.995 622.804 629.255 609.621 621.999 598.166ZM671.104 474.716C680.751 474.438 686.967 480.362 693.265 489.017C687.519 489.059 682.995 487.558 678.325 488.676C671.245 490.372 666.15 494.328 663.872 502.546C663.068 505.446 662.155 508.33 661.626 511.302C655.676 544.764 617.633 557.278 596.87 538.031C589.922 531.589 586.43 522.909 585.103 512.878C584.959 511.789 584.873 510.617 586.109 509.256C591.314 511.026 596.607 513.674 602.195 515.159C610.355 517.326 618.42 518.006 626.651 515.398C636.378 512.315 643.005 505.246 647.301 494.879C649.232 490.219 651.486 485.809 654.707 482.217C659.164 477.246 664.43 474.454 671.104 474.716ZM668.341 500.91C671.778 496.77 676.511 496.023 681.519 499.087C683.822 500.497 686.091 500.766 688.649 500.477C696.001 499.645 701.999 503.138 707.039 509.11C708.471 510.806 709.558 512.847 709.227 516.114C701.807 513.799 695.048 516.385 687.959 518.953C684.908 520.093 682.211 521.32 679.423 522.096C674.404 523.492 669.351 520.919 667.042 516.082C664.623 511.014 665.16 504.741 668.341 500.91ZM630.768 487.54C633.916 487.12 636.422 487.601 637.692 490.994C638.957 494.375 637.374 497.06 635.568 499.23C628.517 507.705 619.823 508.095 610.695 505.496C606.313 504.249 602.078 502.518 599.142 497.223C609.505 492.299 619.866 489.56 630.768 487.54Z" fill="#D9D9D9"/>
<g filter="url(#filter0_dddii_597_49)">
<rect x="4.34961" y="238.072" width="305" height="340" rx="25" transform="rotate(-45.9932 4.34961 238.072)" fill="#E9E9E9" shape-rendering="crispEdges"/>
<rect x="3.85471" y="238.081" width="305.7" height="340.7" rx="25.35" transform="rotate(-45.9932 3.85471 238.081)" stroke="black" stroke-opacity="0.42" stroke-width="0.7" shape-rendering="crispEdges"/>
</g>
<path d="M48.1752 241.19C47.8208 238.233 47.6065 235.407 47.8145 232.511C48.0656 229.014 49.4951 225.967 52.2136 223.334C54.01 221.594 55.7875 221.227 57.6832 222.182C59.6756 223.186 61.3753 224.585 62.9821 226.083C67.9524 230.717 72.7517 235.53 77.8881 239.991C79.2431 241.168 80.225 241.235 81.4991 239.608C81.8348 239.179 82.2616 238.806 82.6814 238.452C84.6572 236.784 86.2847 236.617 87.609 237.925C88.8637 239.164 88.6585 240.638 87.157 242.702C86.3904 243.756 84.3485 244.624 85.2125 245.992C86.2453 247.627 87.6118 249.222 89.8466 249.52C90.4092 249.595 91.0227 249.467 91.599 249.502C93.8873 249.644 94.6974 251.29 93.0355 253.095C89.1397 257.327 85.6582 261.939 81.3912 265.824C80.4809 266.653 79.3248 267.43 78.1537 266.634C77.0984 265.916 76.8641 264.7 77.4581 263.536C78.4242 261.644 77.6477 260.697 76.48 259.652C73.0761 256.605 73.8632 256.599 70.2295 260.3C67.5788 262.999 65.1096 265.888 62.0812 268.194C59.2622 270.342 57.7599 270.24 56.1231 267.601C53.9611 264.115 52.4012 260.287 51.3161 256.23C50.0137 251.361 48.8471 246.439 48.1752 241.19ZM55.1261 240.668C56.163 247.648 57.9248 254.302 61.3362 260.415C63.9607 258.666 65.4335 256.146 67.5464 254.319C69.057 253.013 69.0314 252.071 67.8705 250.851C64.3147 247.114 60.1072 244.1 56.3942 240.541C56.0977 240.257 56.0666 240.29 55.1261 240.668Z" fill="#41060C"/>
<path d="M421.317 255.991C421.671 258.948 421.886 261.775 421.678 264.67C421.427 268.168 419.997 271.214 417.279 273.847C415.482 275.587 413.705 275.955 411.809 275C409.817 273.996 408.117 272.597 406.51 271.099C401.54 266.465 396.74 261.652 391.604 257.191C390.249 256.014 389.267 255.947 387.993 257.574C387.657 258.003 387.231 258.376 386.811 258.73C384.835 260.398 383.208 260.564 381.883 259.257C380.628 258.017 380.834 256.543 382.335 254.479C383.102 253.425 385.144 252.558 384.28 251.19C383.247 249.555 381.88 247.96 379.646 247.662C379.083 247.587 378.469 247.715 377.893 247.679C375.605 247.538 374.795 245.892 376.457 244.087C380.352 239.854 383.834 235.243 388.101 231.357C389.011 230.528 390.167 229.752 391.339 230.548C392.394 231.265 392.628 232.482 392.034 233.645C391.068 235.538 391.844 236.485 393.012 237.53C396.416 240.576 395.629 240.582 399.263 236.882C401.913 234.183 404.383 231.294 407.411 228.987C410.23 226.84 411.732 226.941 413.369 229.58C415.531 233.066 417.091 236.895 418.176 240.952C419.478 245.82 420.645 250.742 421.317 255.991ZM414.366 256.514C413.329 249.534 411.567 242.879 408.156 236.766C405.532 238.516 404.059 241.036 401.946 242.863C400.435 244.169 400.461 245.11 401.622 246.33C405.177 250.067 409.385 253.082 413.098 256.64C413.394 256.924 413.426 256.892 414.366 256.514Z" fill="#41060C"/>
<path d="M355.517 197.774L376.909 196.151L363.566 212.611L372.21 232.43L352.103 224.479L336.116 238.384L336.996 216.948L318.409 205.688L339.101 200.45L343.619 179.589L355.517 197.774Z" fill="#41060C"/>
<path d="M223.931 210.535L263.901 175.773L261.699 229.361L308.168 257.512L256.437 270.607L245.143 322.76L215.398 277.295L161.918 281.354L195.274 240.203L173.665 190.656L223.931 210.535Z" fill="#41060C"/>
<path d="M114.695 272.23L130.682 258.325L129.802 279.761L148.389 291.021L127.697 296.259L123.179 317.12L111.282 298.934L89.8894 300.558L103.232 284.098L94.5879 264.278L114.695 272.23Z" fill="#41060C"/>
<path d="M269.552 283.802L339.608 264.008L278.345 228.043L283.543 155.79L228.385 204.27L161.674 179.601L188.64 245.417L142.102 302.222L214.131 294.523L252.198 354.503L269.552 283.802Z" fill="#41060C"/>
<path d="M259.223 270.486C256.183 273.632 252.969 275.938 249.579 277.404C246.188 278.842 242.929 279.394 239.803 279.06C236.676 278.726 233.982 277.466 231.721 275.282C229.977 273.598 228.758 271.657 228.064 269.459C227.369 267.234 227.202 264.967 227.564 262.656C227.912 260.333 228.772 258.189 230.145 256.223L229.859 255.946C227.251 257.746 224.418 258.512 221.36 258.243C218.288 257.962 215.607 256.716 213.319 254.505C211.153 252.413 209.837 249.918 209.372 247.019C208.892 244.108 209.235 241.081 210.4 237.94C211.563 234.773 213.507 231.779 216.231 228.959C218.955 226.139 221.873 224.099 224.985 222.84C228.111 221.567 231.137 221.119 234.063 221.497C236.976 221.862 239.515 223.077 241.681 225.142C243.97 227.38 245.295 230.029 245.656 233.09C246.017 236.151 245.363 238.995 243.694 241.623L243.98 241.899C245.871 240.486 247.965 239.573 250.262 239.158C252.558 238.716 254.83 238.804 257.077 239.422C259.324 240.012 261.326 241.143 263.083 242.813C265.331 245.011 266.676 247.667 267.119 250.78C267.561 253.893 267.116 257.176 265.783 260.628C264.449 264.053 262.262 267.339 259.223 270.486ZM252.725 264.209C254.08 262.806 255.013 261.337 255.522 259.801C256.017 258.252 256.098 256.751 255.765 255.296C255.431 253.815 254.672 252.503 253.487 251.358C252.274 250.187 250.909 249.46 249.391 249.179C247.859 248.884 246.32 249.004 244.776 249.54C243.218 250.062 241.781 251.005 240.465 252.367C239.162 253.716 238.27 255.184 237.789 256.773C237.294 258.349 237.22 259.897 237.568 261.418C237.915 262.912 238.695 264.245 239.908 265.416C241.093 266.561 242.425 267.281 243.903 267.577C245.368 267.86 246.872 267.72 248.416 267.157C249.947 266.581 251.383 265.599 252.725 264.209ZM234.029 246.15C235.16 244.978 235.928 243.706 236.333 242.333C236.738 240.96 236.768 239.606 236.424 238.273C236.079 236.939 235.355 235.74 234.252 234.674C233.162 233.621 231.958 232.959 230.641 232.687C229.31 232.402 227.979 232.486 226.647 232.937C225.302 233.376 224.05 234.194 222.892 235.393C221.748 236.578 220.973 237.858 220.568 239.231C220.15 240.591 220.106 241.931 220.437 243.251C220.767 244.545 221.477 245.718 222.567 246.771C223.671 247.836 224.895 248.518 226.239 248.816C227.584 249.115 228.935 249.038 230.294 248.585C231.652 248.133 232.897 247.321 234.029 246.15Z" fill="#E9E9E9"/>
<g filter="url(#filter1_dddii_597_49)">
<rect x="275.35" y="11.6992" width="305" height="340" rx="25" fill="#E9E9E9" shape-rendering="crispEdges"/>
<rect x="275" y="11.3492" width="305.7" height="340.7" rx="25.35" stroke="black" stroke-opacity="0.42" stroke-width="0.7" shape-rendering="crispEdges"/>
</g>
<path d="M430.728 64.1406L536.976 215.342H324.481L430.728 64.1406Z" fill="#41060C"/>
<path d="M316.864 94.381L343.521 139.742H290.207L316.864 94.381Z" fill="#41060C"/>
<path d="M536.215 271.287L509.557 225.927H562.872L536.215 271.287Z" fill="#41060C"/>
<path d="M303.722 45.696C305.575 43.3834 307.432 41.2625 309.626 39.3977C312.276 37.1453 315.414 36.0555 319.14 36.1817C321.603 36.2651 323.08 37.2895 323.701 39.3195C324.354 41.4532 324.526 43.6507 324.564 45.8502C324.682 52.654 324.557 59.4595 324.911 66.263C325.005 68.0578 325.629 68.8115 327.654 68.5972C328.188 68.5408 328.744 68.5888 329.283 68.6446C331.818 68.9072 333.049 69.9636 333.029 71.8275C333.01 73.5933 331.825 74.4711 329.334 74.8256C328.063 75.0066 326.05 74.1395 325.672 75.7135C325.22 77.5949 325.026 79.6888 326.344 81.5058C326.676 81.9632 327.187 82.3162 327.556 82.756C329.022 84.5027 328.41 86.2312 325.993 86.2902C320.327 86.4286 314.676 87.1293 309.002 86.7594C307.791 86.6805 306.449 86.388 306.212 84.9905C305.998 83.7312 306.7 82.7161 307.931 82.3344C309.934 81.7136 310.073 80.4954 310.014 78.9273C309.843 74.3561 310.386 74.9188 305.277 74.876C301.549 74.8448 297.812 75.0761 294.104 74.4996C290.653 73.963 289.697 72.8104 290.446 69.7954C291.437 65.8129 293.082 62.0256 295.214 58.4217C297.773 54.0964 300.462 49.8318 303.722 45.696ZM308.85 50.3391C304.614 55.9422 301.104 61.8407 299.107 68.5508C302.143 69.2242 304.937 68.5319 307.678 68.7825C309.638 68.9617 310.288 68.2883 310.358 66.6033C310.572 61.4423 309.828 56.3145 309.808 51.1644C309.806 50.7532 309.762 50.7533 308.85 50.3391Z" fill="#41060C"/>
<path d="M551.977 323.82C550.124 326.132 548.268 328.253 546.073 330.118C543.423 332.37 540.286 333.46 536.559 333.334C534.096 333.251 532.619 332.226 531.998 330.196C531.346 328.062 531.174 325.865 531.135 323.665C531.017 316.862 531.142 310.056 530.788 303.253C530.695 301.458 530.07 300.704 528.045 300.918C527.511 300.975 526.955 300.927 526.416 300.871C523.882 300.608 522.65 299.552 522.67 297.688C522.689 295.922 523.875 295.045 526.365 294.69C527.636 294.509 529.649 295.376 530.027 293.802C530.479 291.921 530.674 289.827 529.355 288.01C529.023 287.552 528.512 287.199 528.143 286.76C526.677 285.013 527.289 283.284 529.706 283.225C535.372 283.087 541.023 282.386 546.697 282.756C547.908 282.835 549.25 283.128 549.487 284.525C549.701 285.784 548.999 286.8 547.768 287.181C545.766 287.802 545.626 289.02 545.685 290.588C545.856 295.16 545.313 294.597 550.423 294.64C554.15 294.671 557.887 294.44 561.595 295.016C565.046 295.553 566.003 296.705 565.253 299.72C564.262 303.703 562.617 307.49 560.485 311.094C557.926 315.419 555.237 319.684 551.977 323.82ZM546.849 319.177C551.085 313.573 554.595 307.675 556.592 300.965C553.556 300.291 550.762 300.984 548.021 300.733C546.061 300.554 545.411 301.227 545.342 302.912C545.127 308.073 545.871 313.201 545.891 318.351C545.893 318.762 545.937 318.762 546.849 319.177Z" fill="#41060C"/>
<g filter="url(#filter2_dddii_597_49)">
<rect x="572.879" y="54.6992" width="305" height="340" rx="25" transform="rotate(23.4915 572.879 54.6992)" fill="#E9E9E9" shape-rendering="crispEdges"/>
<rect x="572.697" y="54.2387" width="305.7" height="340.7" rx="25.35" transform="rotate(23.4915 572.697 54.2387)" stroke="black" stroke-opacity="0.42" stroke-width="0.7" shape-rendering="crispEdges"/>
</g>
<path d="M733.823 346.263C747.341 352.139 753.579 367.76 747.758 381.154C741.936 394.549 726.258 400.644 712.741 394.769C699.223 388.894 692.985 373.273 698.806 359.878C704.628 346.484 720.305 340.388 733.823 346.263Z" fill="#41060C"/>
<path d="M677.912 191.796C720.395 210.261 740.003 259.356 721.706 301.453C703.409 343.549 654.137 362.707 611.653 344.242C569.17 325.777 549.562 276.682 567.859 234.585C586.156 192.489 635.428 173.331 677.912 191.796Z" fill="#41060C"/>
<path d="M576.911 148.722C590.428 154.597 596.667 170.218 590.845 183.612C585.024 197.007 569.346 203.102 555.829 197.227C542.311 191.352 536.072 175.731 541.894 162.336C547.716 148.942 563.393 142.846 576.911 148.722Z" fill="#41060C"/>
<path d="M585.319 96.8386C587.964 95.4704 590.536 94.2791 593.321 93.4591C596.685 92.4686 600.039 92.7398 603.457 94.3631C605.717 95.4358 606.684 96.9717 606.454 99.0819C606.212 101.3 605.497 103.382 604.657 105.412C602.059 111.691 599.233 117.873 596.855 124.247C596.228 125.928 596.509 126.871 598.48 127.494C598.999 127.659 599.498 127.928 599.977 128.197C602.231 129.462 602.958 130.928 602.197 132.627C601.476 134.237 600.023 134.561 597.564 133.878C596.308 133.529 594.78 131.921 593.802 133.21C592.632 134.75 591.618 136.589 592.122 138.786C592.249 139.339 592.583 139.869 592.752 140.421C593.422 142.614 592.164 143.95 589.891 143.026C584.562 140.86 579.022 139.216 573.888 136.581C572.792 136.019 571.66 135.209 571.995 133.833C572.297 132.593 573.354 131.947 574.652 132.096C576.764 132.337 577.378 131.278 577.948 129.818C579.608 125.563 579.89 126.298 575.15 124.191C571.693 122.655 568.123 121.354 564.901 119.326C561.902 117.439 561.47 115.996 563.368 113.538C565.875 110.292 568.915 107.489 572.334 105.051C576.437 102.125 580.638 99.3075 585.319 96.8386ZM588.244 103.166C582.07 106.583 576.455 110.565 571.925 115.902C574.483 117.747 577.36 118.244 579.812 119.582C581.564 120.539 582.437 120.185 583.173 118.67C585.427 114.031 586.775 109.034 588.807 104.309C588.969 103.932 588.928 103.914 588.244 103.166Z" fill="#41060C"/>
<path d="M702.222 451.501C699.577 452.869 697.005 454.061 694.22 454.881C690.856 455.871 687.502 455.6 684.084 453.977C681.824 452.904 680.857 451.368 681.087 449.258C681.329 447.04 682.044 444.958 682.884 442.928C685.482 436.649 688.308 430.467 690.686 424.093C691.313 422.412 691.032 421.469 689.061 420.845C688.542 420.681 688.043 420.412 687.564 420.143C685.31 418.877 684.583 417.411 685.344 415.713C686.065 414.103 687.518 413.779 689.977 414.462C691.233 414.81 692.761 416.419 693.739 415.13C694.909 413.59 695.923 411.751 695.419 409.554C695.292 409 694.958 408.471 694.789 407.918C694.119 405.726 695.377 404.39 697.65 405.314C702.979 407.479 708.519 409.124 713.653 411.759C714.749 412.321 715.881 413.131 715.546 414.507C715.244 415.747 714.187 416.393 712.889 416.244C710.777 416.003 710.163 417.062 709.593 418.522C707.933 422.777 707.651 422.042 712.391 424.149C715.848 425.685 719.418 426.985 722.64 429.013C725.639 430.901 726.071 432.344 724.173 434.802C721.666 438.048 718.626 440.851 715.207 443.289C711.104 446.215 706.903 449.032 702.222 451.501ZM699.297 445.174C705.471 441.757 711.086 437.775 715.616 432.437C713.058 430.592 710.181 430.096 707.729 428.758C705.977 427.801 705.104 428.154 704.368 429.669C702.114 434.309 700.766 439.306 698.734 444.031C698.572 444.408 698.613 444.426 699.297 445.174Z" fill="#41060C"/>
</g>
<defs>
<filter id="filter0_dddii_597_49" x="0" y="17.3496" width="465.145" height="465.285" filterUnits="userSpaceOnUse" color-interpolation-filters="sRGB">
<feFlood flood-opacity="0" result="BackgroundImageFix"/>
<feColorMatrix in="SourceAlpha" type="matrix" values="0 0 0 0 0 0 0 0 0 0 0 0 0 0 0 0 0 0 127 0" result="hardAlpha"/>
<feMorphology radius="4" operator="erode" in="SourceAlpha" result="effect1_dropShadow_597_49"/>
<feOffset dy="5"/>
<feGaussianBlur stdDeviation="2.5"/>
<feComposite in2="hardAlpha" operator="out"/>
<feColorMatrix type="matrix" values="0 0 0 0 0 0 0 0 0 0 0 0 0 0 0 0 0 0 0.24 0"/>
<feBlend mode="multiply" in2="BackgroundImageFix" result="effect1_dropShadow_597_49"/>
<feColorMatrix in="SourceAlpha" type="matrix" values="0 0 0 0 0 0 0 0 0 0 0 0 0 0 0 0 0 0 127 0" result="hardAlpha"/>
<feOffset dy="3"/>
<feGaussianBlur stdDeviation="7"/>
<feComposite in2="hardAlpha" operator="out"/>
<feColorMatrix type="matrix" values="0 0 0 0 0 0 0 0 0 0 0 0 0 0 0 0 0 0 0.2 0"/>
<feBlend mode="normal" in2="effect1_dropShadow_597_49" result="effect2_dropShadow_597_49"/>
<feColorMatrix in="SourceAlpha" type="matrix" values="0 0 0 0 0 0 0 0 0 0 0 0 0 0 0 0 0 0 127 0" result="hardAlpha"/>
<feOffset dy="8"/>
<feGaussianBlur stdDeviation="5"/>
<feComposite in2="hardAlpha" operator="out"/>
<feColorMatrix type="matrix" values="0 0 0 0 0 0 0 0 0 0 0 0 0 0 0 0 0 0 0.12 0"/>
<feBlend mode="normal" in2="effect2_dropShadow_597_49" result="effect3_dropShadow_597_49"/>
<feBlend mode="normal" in="SourceGraphic" in2="effect3_dropShadow_597_49" result="shape"/>
<feColorMatrix in="SourceAlpha" type="matrix" values="0 0 0 0 0 0 0 0 0 0 0 0 0 0 0 0 0 0 127 0" result="hardAlpha"/>
<feOffset dx="8" dy="8"/>
<feGaussianBlur stdDeviation="1"/>
<feComposite in2="hardAlpha" operator="arithmetic" k2="-1" k3="1"/>
<feColorMatrix type="matrix" values="0 0 0 0 1 0 0 0 0 1 0 0 0 0 1 0 0 0 1 0"/>
<feBlend mode="normal" in2="shape" result="effect4_innerShadow_597_49"/>
<feColorMatrix in="SourceAlpha" type="matrix" values="0 0 0 0 0 0 0 0 0 0 0 0 0 0 0 0 0 0 127 0" result="hardAlpha"/>
<feOffset dx="-7" dy="-6"/>
<feGaussianBlur stdDeviation="0.75"/>
<feComposite in2="hardAlpha" operator="arithmetic" k2="-1" k3="1"/>
<feColorMatrix type="matrix" values="0 0 0 0 0.821852 0 0 0 0 0.814952 0 0 0 0 0.814952 0 0 0 0.95 0"/>
<feBlend mode="normal" in2="effect4_innerShadow_597_49" result="effect5_innerShadow_597_49"/>
</filter>
<filter id="filter1_dddii_597_49" x="260.65" y="0" width="334.398" height="370.398" filterUnits="userSpaceOnUse" color-interpolation-filters="sRGB">
<feFlood flood-opacity="0" result="BackgroundImageFix"/>
<feColorMatrix in="SourceAlpha" type="matrix" values="0 0 0 0 0 0 0 0 0 0 0 0 0 0 0 0 0 0 127 0" result="hardAlpha"/>
<feMorphology radius="4" operator="erode" in="SourceAlpha" result="effect1_dropShadow_597_49"/>
<feOffset dy="5"/>
<feGaussianBlur stdDeviation="2.5"/>
<feComposite in2="hardAlpha" operator="out"/>
<feColorMatrix type="matrix" values="0 0 0 0 0 0 0 0 0 0 0 0 0 0 0 0 0 0 0.24 0"/>
<feBlend mode="multiply" in2="BackgroundImageFix" result="effect1_dropShadow_597_49"/>
<feColorMatrix in="SourceAlpha" type="matrix" values="0 0 0 0 0 0 0 0 0 0 0 0 0 0 0 0 0 0 127 0" result="hardAlpha"/>
<feOffset dy="3"/>
<feGaussianBlur stdDeviation="7"/>
<feComposite in2="hardAlpha" operator="out"/>
<feColorMatrix type="matrix" values="0 0 0 0 0 0 0 0 0 0 0 0 0 0 0 0 0 0 0.2 0"/>
<feBlend mode="normal" in2="effect1_dropShadow_597_49" result="effect2_dropShadow_597_49"/>
<feColorMatrix in="SourceAlpha" type="matrix" values="0 0 0 0 0 0 0 0 0 0 0 0 0 0 0 0 0 0 127 0" result="hardAlpha"/>
<feOffset dy="8"/>
<feGaussianBlur stdDeviation="5"/>
<feComposite in2="hardAlpha" operator="out"/>
<feColorMatrix type="matrix" values="0 0 0 0 0 0 0 0 0 0 0 0 0 0 0 0 0 0 0.12 0"/>
<feBlend mode="normal" in2="effect2_dropShadow_597_49" result="effect3_dropShadow_597_49"/>
<feBlend mode="normal" in="SourceGraphic" in2="effect3_dropShadow_597_49" result="shape"/>
<feColorMatrix in="SourceAlpha" type="matrix" values="0 0 0 0 0 0 0 0 0 0 0 0 0 0 0 0 0 0 127 0" result="hardAlpha"/>
<feOffset dx="8" dy="8"/>
<feGaussianBlur stdDeviation="1"/>
<feComposite in2="hardAlpha" operator="arithmetic" k2="-1" k3="1"/>
<feColorMatrix type="matrix" values="0 0 0 0 1 0 0 0 0 1 0 0 0 0 1 0 0 0 1 0"/>
<feBlend mode="normal" in2="shape" result="effect4_innerShadow_597_49"/>
<feColorMatrix in="SourceAlpha" type="matrix" values="0 0 0 0 0 0 0 0 0 0 0 0 0 0 0 0 0 0 127 0" result="hardAlpha"/>
<feOffset dx="-7" dy="-6"/>
<feGaussianBlur stdDeviation="0.75"/>
<feComposite in2="hardAlpha" operator="arithmetic" k2="-1" k3="1"/>
<feColorMatrix type="matrix" values="0 0 0 0 0.821852 0 0 0 0 0.814952 0 0 0 0 0.814952 0 0 0 0.95 0"/>
<feBlend mode="normal" in2="effect4_innerShadow_597_49" result="effect5_innerShadow_597_49"/>
</filter>
<filter id="filter2_dddii_597_49" x="430.537" y="50.8867" width="428.877" height="448.023" filterUnits="userSpaceOnUse" color-interpolation-filters="sRGB">
<feFlood flood-opacity="0" result="BackgroundImageFix"/>
<feColorMatrix in="SourceAlpha" type="matrix" values="0 0 0 0 0 0 0 0 0 0 0 0 0 0 0 0 0 0 127 0" result="hardAlpha"/>
<feMorphology radius="4" operator="erode" in="SourceAlpha" result="effect1_dropShadow_597_49"/>
<feOffset dy="5"/>
<feGaussianBlur stdDeviation="2.5"/>
<feComposite in2="hardAlpha" operator="out"/>
<feColorMatrix type="matrix" values="0 0 0 0 0 0 0 0 0 0 0 0 0 0 0 0 0 0 0.24 0"/>
<feBlend mode="multiply" in2="BackgroundImageFix" result="effect1_dropShadow_597_49"/>
<feColorMatrix in="SourceAlpha" type="matrix" values="0 0 0 0 0 0 0 0 0 0 0 0 0 0 0 0 0 0 127 0" result="hardAlpha"/>
<feOffset dy="3"/>
<feGaussianBlur stdDeviation="7"/>
<feComposite in2="hardAlpha" operator="out"/>
<feColorMatrix type="matrix" values="0 0 0 0 0 0 0 0 0 0 0 0 0 0 0 0 0 0 0.2 0"/>
<feBlend mode="normal" in2="effect1_dropShadow_597_49" result="effect2_dropShadow_597_49"/>
<feColorMatrix in="SourceAlpha" type="matrix" values="0 0 0 0 0 0 0 0 0 0 0 0 0 0 0 0 0 0 127 0" result="hardAlpha"/>
<feOffset dy="8"/>
<feGaussianBlur stdDeviation="5"/>
<feComposite in2="hardAlpha" operator="out"/>
<feColorMatrix type="matrix" values="0 0 0 0 0 0 0 0 0 0 0 0 0 0 0 0 0 0 0.12 0"/>
<feBlend mode="normal" in2="effect2_dropShadow_597_49" result="effect3_dropShadow_597_49"/>
<feBlend mode="normal" in="SourceGraphic" in2="effect3_dropShadow_597_49" result="shape"/>
<feColorMatrix in="SourceAlpha" type="matrix" values="0 0 0 0 0 0 0 0 0 0 0 0 0 0 0 0 0 0 127 0" result="hardAlpha"/>
<feOffset dx="8" dy="8"/>
<feGaussianBlur stdDeviation="1"/>
<feComposite in2="hardAlpha" operator="arithmetic" k2="-1" k3="1"/>
<feColorMatrix type="matrix" values="0 0 0 0 1 0 0 0 0 1 0 0 0 0 1 0 0 0 1 0"/>
<feBlend mode="normal" in2="shape" result="effect4_innerShadow_597_49"/>
<feColorMatrix in="SourceAlpha" type="matrix" values="0 0 0 0 0 0 0 0 0 0 0 0 0 0 0 0 0 0 127 0" result="hardAlpha"/>
<feOffset dx="-7" dy="-6"/>
<feGaussianBlur stdDeviation="0.75"/>
<feComposite in2="hardAlpha" operator="arithmetic" k2="-1" k3="1"/>
<feColorMatrix type="matrix" values="0 0 0 0 0.821852 0 0 0 0 0.814952 0 0 0 0 0.814952 0 0 0 0.95 0"/>
<feBlend mode="normal" in2="effect4_innerShadow_597_49" result="effect5_innerShadow_597_49"/>
</filter>
</defs>
</svg>
